<svg xmlns="http://www.w3.org/2000/svg" version="1.0" width="1100.000000pt" height="355.000000pt" viewBox="0 0 1100.000000 355.000000" preserveAspectRatio="xMidYMid meet">

<g transform="translate(0.000000,355.000000) scale(0.100000,-0.100000)" fill="#431407" stroke="none">
<path d="M1465 2976 c-186 -32 -396 -130 -548 -255 -178 -146 -295 -309 -375 -521 -56 -149 -64 -189 -69 -365 -2 -93 0 -204 5 -245 29 -230 150 -474 321 -649 115 -117 140 -138 229 -194 115 -72 206 -112 342 -153 92 -27 103 -28 315 -28 l220 -1 110 34 c61 19 117 38 125 42 8 4 42 20 75 35 119 55 227 134 340 248 112 113 155 174 218 301 48 96 62 130 82 200 9 33 21 71 27 85 14 36 21 361 10 450 -9 68 -51 227 -71 268 -5 10 -21 44 -37 77 -102 212 -274 399 -480 521 -41 24 -77 44 -79 44 -3 0 -27 11 -55 24 -66 32 -175 64 -274 82 -97 17 -331 17 -431 0z m255 -191 c13 -16 15 -96 5 -250 -10 -162 -5 -152 -83 -157 -37 -3 -107 -19 -157 -35 -106 -36 -131 -32 -174 31 -15 22 -30 46 -32 51 -2 6 -24 43 -48 84 -49 81 -57 127 -27 160 42 46 260 108 436 125 19 1 42 4 51 4 9 1 22 -5 29 -13z m-654 -257 c14 -7 58 -55 98 -107 39 -52 79 -105 90 -118 10 -13 19 -38 20 -56 1 -30 -1 -32 -36 -35 -32 -3 -45 4 -115 64 -165 142 -179 161 -157 219 5 13 49 40 71 45 1 0 14 -5 29 -12z m716 -339 c59 -12 143 -56 194 -101 47 -42 105 -141 121 -207 74 -315 -192 -586 -509 -520 -59 12 -143 56 -194 101 -19 17 -50 57 -70 90 -80 132 -85 297 -11 427 43 76 80 115 150 158 96 58 204 76 319 52z m489 -955 c63 -53 117 -102 121 -108 13 -19 9 -74 -7 -90 -50 -49 -86 -28 -199 113 -73 92 -96 128 -96 151 0 27 3 30 33 30 28 0 53 -17 148 -96z m-248 -37 c12 -13 52 -71 90 -129 66 -103 81 -151 59 -184 -9 -14 -114 -64 -133 -64 -8 0 -19 -4 -24 -8 -23 -20 -172 -48 -298 -56 -93 -6 -94 -5 -80 212 6 92 14 175 18 185 5 13 19 17 59 18 28 0 85 11 126 23 103 32 155 33 183 3z" fill="#431407"/>
<path d="M1634 1929 c-18 -5 -47 -26 -66 -47 -110 -122 0 -301 162 -262 59 14 95 50 110 111 15 61 1 115 -43 157 -48 47 -99 60 -163 41z" fill="#431407"/>
<path d="M5760 2322 c-57 -29 -66 -124 -16 -171 33 -31 125 -33 164 -4 59 44 51 152 -13 179 -46 19 -93 18 -135 -4z" fill="#431407"/>
<path d="M8804 2333 c-33 -6 -55 -37 -61 -82 -7 -50 10 -94 43 -112 34 -17 118 -15 148 5 24 15 49 75 41 99 -2 7 -6 25 -10 40 -9 45 -79 66 -161 50z" fill="#431407"/>
<path d="M7771 2249 c-94 -12 -148 -48 -186 -124 l-30 -60 -3 -268 c-3 -220 0 -277 12 -322 19 -64 54 -108 110 -138 40 -22 48 -22 431 -22 404 0 447 4 494 43 l21 17 -31 51 -31 50 -354 -4 c-380 -5 -401 -3 -423 44 -16 36 -15 513 2 535 32 42 50 44 332 42 149 -2 302 -5 340 -8 l70 -6 16 71 c15 69 15 71 -4 82 -11 5 -63 14 -116 19 -120 10 -564 9 -650 -2z" fill="#431407"/>
<path d="M3640 2241 c-76 -23 -138 -80 -161 -148 -8 -21 -14 -74 -14 -118 0 -97 22 -162 71 -204 62 -55 110 -63 412 -68 319 -7 312 -4 320 -96 6 -70 -10 -111 -49 -127 -22 -10 -114 -12 -363 -8 l-334 5 -30 -68 c-27 -61 -28 -70 -14 -81 12 -10 106 -13 431 -13 415 0 416 0 459 23 58 31 97 95 112 183 20 119 -5 225 -66 278 -60 54 -111 62 -399 68 -143 2 -272 9 -287 15 -55 21 -65 136 -15 185 l24 25 249 -1 c137 -1 288 -4 335 -7 l86 -7 17 68 c19 78 17 84 -46 96 -54 10 -704 10 -738 0z" fill="#431407"/>
<path d="M9256 2223 c-3 -16 -11 -57 -17 -93 -15 -85 -29 -100 -91 -100 l-48 0 0 -70 0 -70 65 0 65 0 0 -212 c0 -117 5 -230 10 -250 15 -52 52 -92 98 -106 42 -13 250 -16 350 -6 l62 7 -6 41 c-12 94 1 86 -142 86 -184 0 -172 -17 -172 236 l0 204 165 0 165 0 0 70 0 70 -165 0 -165 0 0 110 0 110 -84 0 c-84 0 -84 0 -90 -27z" fill="#431407"/>
<path d="M4670 1521 l0 -511 100 0 100 0 0 154 0 154 268 -5 c265 -5 267 -5 312 19 33 17 51 35 68 68 21 42 22 56 22 263 0 242 -7 284 -52 322 -51 43 -93 48 -343 40 -246 -8 -265 -8 -392 1 l-83 6 0 -511z m653 350 c15 -12 17 -39 17 -195 0 -141 -3 -187 -14 -202 -13 -18 -30 -19 -221 -22 -148 -2 -211 0 -221 9 -11 9 -14 51 -14 210 0 110 1 200 3 200 10 6 243 16 328 15 74 -1 111 -5 122 -15z" fill="#431407"/>
<path d="M5730 1670 l0 -360 100 0 100 0 0 360 0 360 -100 0 -100 0 0 -360z" fill="#431407"/>
<path d="M6130 1670 l0 -360 100 0 100 0 0 274 c0 240 2 277 16 291 14 14 43 16 219 13 153 -2 206 -6 218 -17 15 -12 17 -45 17 -287 l0 -274 100 0 100 0 0 293 c0 284 -1 294 -22 337 -36 70 -75 84 -240 88 -83 2 -192 -3 -274 -12 -120 -14 -139 -14 -164 -1 -18 9 -57 15 -100 15 l-70 0 0 -360z" fill="#431407"/>
<path d="M8760 1670 l0 -360 100 0 100 0 0 360 0 360 -100 0 -100 0 0 -360z" fill="#431407"/>
<path d="M9810 2022 c0 -4 69 -165 153 -357 l154 -350 42 -5 42 -5 -31 -48 c-41 -61 -103 -97 -178 -104 -52 -5 -91 2 -198 33 -19 5 -24 -2 -44 -60 -12 -37 -20 -73 -17 -80 10 -26 126 -50 242 -50 99 0 116 3 170 27 73 34 133 90 190 177 49 74 350 691 371 759 23 73 26 71 -95 71 l-109 0 -91 -213 c-49 -117 -100 -240 -112 -272 -29 -78 -34 -83 -48 -43 -6 18 -57 144 -113 281 l-102 247 -113 0 c-62 0 -113 -3 -113 -8z" fill="#431407"/>
</g>
</svg>